<svg width="796" height="515" viewBox="0 0 796 515" fill="none" xmlns="http://www.w3.org/2000/svg">
<g clip-path="url(#clip0)">
<path d="M483.212 514.303C619.497 514.303 729.978 482.686 729.978 443.684C729.978 404.682 619.497 373.065 483.212 373.065C346.926 373.065 236.445 404.682 236.445 443.684C236.445 482.686 346.926 514.303 483.212 514.303Z" fill="#F5F5F5"/>
<path d="M717.995 168.969C717.995 168.969 674.282 212.753 698.959 277.723C723.636 342.692 656.656 450.739 656.656 450.739C656.656 450.739 657.361 450.633 658.708 450.4C748.489 434.525 793.097 331.675 743.173 255.273C724.637 226.87 709.373 193.545 717.995 168.969Z" fill="#2091F9"/>
<path d="M717.995 168.969C717.995 168.969 693.319 222.64 717.995 266.424C742.672 310.207 722.226 433.084 656.656 450.739" stroke="#535461" stroke-width="2" stroke-miterlimit="10"/>
<path d="M795.843 346.061C795.843 346.061 745.961 338.102 741.414 382.881C736.866 427.661 645.527 433.861 645.527 433.861C645.527 433.861 646.12 434.271 647.241 435.005C722.681 484.608 794.8 466.6 783.935 400.734C779.867 376.25 780.191 351.654 795.843 346.061Z" fill="#2091F9"/>
<path opacity="0.2" d="M795.843 346.061C795.843 346.061 745.961 338.102 741.414 382.881C736.866 427.661 645.527 433.861 645.527 433.861C645.527 433.861 646.12 434.271 647.241 435.005C722.681 484.608 794.8 466.6 783.935 400.734C779.867 376.25 780.191 351.654 795.843 346.061Z" fill="#F5F5F5"/>
<path d="M795.844 346.061C795.844 346.061 757.123 354.577 760.303 389.844C763.483 425.111 702.778 467.37 645.5 433.847" stroke="#535461" stroke-width="2" stroke-miterlimit="10"/>
<path opacity="0.2" d="M225.745 0.359615C220.062 0.161882 214.239 0.359615 208.908 2.35107C194.406 7.76754 187.531 25.4858 189.766 40.8313C192.001 56.1768 201.195 69.5026 210.735 81.7126C220.274 93.9227 230.61 105.977 235.841 120.553C238.45 127.834 239.67 135.99 237.019 143.257C232.929 154.464 220.598 160.728 208.76 162.028C196.923 163.327 185.036 160.792 173.156 159.909C168.171 159.556 163.045 159.514 158.35 161.152C153.196 162.939 148.902 166.583 144.954 170.382C129.548 185.282 117.217 205.621 119.212 226.976C121.469 251.184 141.591 270.322 163.63 280.583C170.928 283.987 178.648 286.741 185.071 291.599C201.992 304.41 205.792 328.413 204.107 349.606C202.422 370.798 196.683 392.012 199.877 413.021C203.635 437.456 220.267 459.524 242.701 469.834C262.689 479.015 287.704 478.443 305.451 465.456C314.101 459.1 320.644 450.336 326.334 441.248C334.922 427.536 341.89 412.872 347.098 397.549C349.572 390.268 351.899 382.436 357.673 377.373C361.199 374.259 365.767 372.514 370.287 371.159C383.908 367.077 398.256 365.954 412.004 362.324C425.753 358.694 439.586 351.929 447.059 339.832C457.635 322.664 452.7 300.709 452.749 280.512C452.833 234.497 480.323 193.298 490.469 148.455C493.783 133.794 495.016 117.573 487.613 104.501C482.579 95.5822 474.098 89.2265 465.179 84.2832C445.579 73.3796 423.299 68.5281 401.379 63.8037C370.914 57.2502 333.92 56.4028 310.308 35.203C287.648 14.8647 256.647 0.359615 225.745 0.359615Z" fill="#2091F9"/>
<g opacity="0.5">
<path opacity="0.5" d="M336.254 178.468C336.252 167.376 334.518 156.354 331.114 145.799L322.654 119.522C322.654 119.084 322.654 118.653 322.654 118.223C322.915 101.38 309.808 92.9764 304.76 93.8874C299.592 94.8195 285.251 87.6164 285.251 87.6164V87.8141C284.268 86.6804 283.381 85.4663 282.6 84.1843C285.078 82.3768 287.17 80.0915 288.753 77.4626C290.336 74.8337 291.379 71.9143 291.82 68.876C292.26 65.8377 292.09 62.7418 291.32 59.7703C290.549 56.7987 289.192 54.0115 287.331 51.5725C288.881 50.406 290.063 48.8174 290.736 46.9964C291.907 43.6985 291.011 39.9345 289.107 36.9967C288.298 35.7704 287.352 34.6403 286.287 33.6282C284.675 32.0281 282.914 30.5857 281.028 29.3205C276.325 26.0579 271.157 23.2543 265.517 22.2586C264.541 22.0277 263.524 22.0277 262.548 22.2586C261.701 22.601 260.895 23.0368 260.144 23.558C256.281 25.7613 251.472 24.8079 247.016 24.5749C242.56 24.3418 237.146 25.5918 235.735 29.7795C235.298 31.0718 235.327 32.4701 235.03 33.7977C234.325 37.0462 231.822 39.5673 229.891 42.272C227.959 44.9767 226.513 48.6277 228.121 51.5654C228.671 52.5541 229.531 53.4651 229.531 54.595C229.531 55.4071 229.052 56.1345 228.826 56.9113C228.34 58.6768 229.256 60.4422 230.666 61.7204C231.274 62.3766 231.989 62.9236 232.781 63.3376C235.016 64.4816 237.59 64.8347 239.867 65.894C241.004 66.4287 242.047 67.1442 242.955 68.0126C244.068 69.1795 244.938 70.5566 245.514 72.0636C246.09 73.5707 246.361 75.1775 246.311 76.7905L246.784 76.84C246.784 76.9812 246.784 77.1154 246.784 77.2566C247.277 77.3131 247.799 77.3625 248.313 77.3837C249.054 78.5809 249.901 79.7083 250.845 80.7522C250.685 81.3549 250.504 81.9669 250.302 82.5883C248.645 83.7394 235.094 92.7787 219.682 90.6036C203.233 88.2802 193.827 160.312 193.827 160.312C193.218 164.431 192.921 168.59 192.939 172.755C192.869 183.347 195.089 197.21 207.463 195.169L214.041 193.001V228.628C214.041 228.628 214.979 238.388 211.693 244.871C208.408 251.354 222.036 249.051 222.036 249.051C222.036 249.051 222.558 249.595 223.517 250.52L223.214 251.375L223.616 251.784C221.823 257.922 219.406 263.859 216.403 269.503L216.791 269.7C216.544 270.173 216.403 270.407 216.403 270.407C216.403 270.407 221.465 272.998 228.431 276.339C234.029 295.293 246.283 339.189 242.25 347.551L242.363 347.791C243.117 349.359 247.333 358.603 246.48 367.07C245.712 374.64 256.175 409.039 260.081 421.531L258.234 421.905L264.812 445.605L263.401 460.943C263.401 460.943 255.413 482.32 274.21 478.139C293.006 473.959 287.838 456.763 287.838 456.763L288.311 421.905C288.311 421.905 286.499 420.895 284.264 419.928C282.727 415.769 279.378 405.938 279.378 399.138C279.378 390.31 273.265 352.197 273.265 352.197V352.12V351.971V351.929L273.23 351.421V351.336C273.23 350.863 273.152 350.213 273.096 349.422V349.38C272.391 339.076 270.276 304.071 271.82 285.823C273.178 284.895 274.59 284.051 276.05 283.294C280.626 294.876 292.421 326.167 291.667 339.295C290.729 355.538 291.434 342.784 291.667 340.708C291.737 340.065 291.787 340.842 291.808 342.586C291.808 342.904 291.808 343.257 291.808 343.631C291.808 344.006 291.808 344.422 291.808 344.853C291.808 345.284 291.808 345.75 291.808 346.265C291.808 346.51 291.808 346.76 291.808 347.014C291.808 347.522 291.808 348.054 291.808 348.61C291.808 348.888 291.808 349.17 291.808 349.457C291.808 350.87 291.808 352.438 291.758 354.069C291.758 354.394 291.758 354.723 291.758 355.057C291.758 356.053 291.758 357.07 291.709 358.101C291.709 359.513 291.653 360.884 291.625 362.303C291.554 365.481 291.462 368.694 291.35 371.702C291.35 372.037 291.338 372.368 291.314 372.698C291.291 373.357 291.265 374.002 291.237 374.633C291.209 375.264 291.18 375.881 291.152 376.483C291.124 377.081 291.093 377.663 291.06 378.228C291.025 378.891 290.983 379.527 290.948 380.134L288.395 379.767L287.853 385.642C286.997 394.971 288.201 404.373 291.378 413.184C292.252 415.599 292.929 417.598 293.077 418.311C293.549 420.634 293.077 437.378 293.077 437.378C293.077 437.378 295.897 459.22 309.06 455.033C314.983 453.147 317.859 447.413 319.234 441.665C320.76 435.001 320.191 428.028 317.605 421.701C315.737 416.997 313.826 410.402 315.173 405.303C317.521 396.475 317.521 383.926 317.521 383.926L316.069 383.722C316.43 383.032 316.758 382.325 317.049 381.603C317.049 381.603 316.576 349.535 320.806 345.354C323.133 343.052 322.922 337.523 322.217 333.003C321.209 326.462 320.973 319.826 321.511 313.23C321.801 309.833 322.217 306.874 322.703 305.822C323.944 303.364 325.185 278.591 319.692 266.671L320.821 266.318L320.644 265.442L320.821 265.386C321.649 267.6 322.59 269.771 323.641 271.89C323.918 272.107 324.237 272.266 324.578 272.356C339.8 269.679 340.414 255.449 339.568 247.681C340.209 247.992 340.562 248.19 340.562 248.19L341.972 227.71C343.417 224.441 343.953 220.267 343.918 215.755C343.981 199.625 336.254 178.468 336.254 178.468ZM319.474 236.679C318.43 227.76 316.985 219.363 316.985 219.363L309.935 194.265V185.127L321.117 226.933L319.474 236.679Z" fill="url(#paint0_linear)"/>
</g>
<path d="M287.774 373.771L287.252 379.513C286.429 388.635 287.596 397.828 290.672 406.454C291.511 408.82 292.166 410.769 292.307 411.468C292.759 413.742 292.307 430.09 292.307 430.09C292.307 430.09 295.029 451.438 307.727 447.349C313.438 445.513 316.187 439.899 317.541 434.285C319.009 427.774 318.458 420.969 315.962 414.78C314.157 410.183 312.31 403.721 313.614 398.756C315.884 390.127 315.884 377.867 315.884 377.867L287.774 373.771Z" fill="#5A5773"/>
<path d="M274.172 275.216C274.172 275.216 291.854 318.364 290.945 334.253C290.035 350.142 290.719 337.657 290.945 335.616C291.347 331.979 290.945 375.163 289.584 380.106C289.584 380.106 308.176 393.728 315.431 375.565C315.431 375.565 314.98 344.232 319.055 340.143C321.297 337.897 321.079 332.488 320.416 328.074C319.438 321.689 319.201 315.213 319.711 308.774C319.986 305.455 320.367 302.531 320.86 301.535C322.221 298.809 323.582 267.928 315.417 259.298L274.172 275.216Z" fill="#605D82"/>
<path opacity="0.1" d="M291.855 380.127C293.216 375.134 293.618 331.979 293.216 335.637C292.99 337.678 292.306 350.171 293.216 334.274C294.125 318.378 276.443 275.237 276.443 275.237L316.003 259.997C315.82 259.764 315.629 259.545 315.439 259.341L274.18 275.237C274.18 275.237 291.862 318.385 290.953 334.274C290.043 350.164 290.727 337.678 290.953 335.637C291.355 332 290.953 375.184 289.592 380.127C289.592 380.127 297.016 385.565 304.313 384.986C297.82 384.499 291.855 380.127 291.855 380.127Z" fill="black"/>
<path d="M258.754 415.098L265.099 438.261L263.739 453.246C263.739 453.246 256.032 474.135 274.166 470.046C292.3 465.957 287.315 449.157 287.315 449.157L287.767 415.098C287.767 415.098 280.512 411.009 277.339 411.468C274.166 411.927 258.754 415.098 258.754 415.098Z" fill="#5A5773"/>
<path d="M227.473 264.319C227.473 264.319 248.328 331.986 243.343 342.431C243.343 342.431 248.328 352.423 247.425 361.498C246.523 370.573 261.935 419.172 261.935 419.172L284.61 415.084C284.61 415.084 279.167 401.461 279.167 392.832C279.167 384.202 273.272 346.929 273.272 346.929C273.272 346.929 268.288 278.803 274.182 271.537L227.473 264.319Z" fill="#605D82"/>
<g opacity="0.1">
<path opacity="0.1" d="M272.421 277.073C268.663 292.496 272.816 349.253 272.816 349.253C272.816 349.253 278.71 386.49 278.71 395.155C278.71 401.744 281.876 411.235 283.378 415.359L284.604 415.14C284.604 415.14 279.162 401.518 279.162 392.888C279.162 384.258 273.267 346.986 273.267 346.986C273.267 346.986 269.474 295.116 272.421 277.073Z" fill="black"/>
<path opacity="0.1" d="M243.344 342.431L243.457 342.664C243.492 342.431 243.527 342.184 243.548 341.958C243.488 342.119 243.42 342.277 243.344 342.431Z" fill="black"/>
<path opacity="0.1" d="M273.153 273.768C273.359 272.985 273.705 272.245 274.175 271.586L227.473 264.319C227.473 264.319 227.748 265.202 228.22 266.777L273.153 273.768Z" fill="black"/>
</g>
<path d="M336.288 239.793C336.288 239.793 343.092 265.216 322.688 268.86C322.357 268.774 322.047 268.62 321.778 268.408C321.778 268.408 309.99 245.245 319.057 236.164L336.288 239.793Z" fill="#FAC3CA"/>
<path d="M252.861 70.8657C252.861 70.8657 254.222 89.9328 239.261 99.0215C224.3 108.11 270.988 133.081 270.988 133.081L295.474 94.0217C295.474 94.0217 285.054 95.3705 278.708 77.2214L252.861 70.8657Z" fill="#FAC3CA"/>
<path opacity="0.1" d="M242.882 100.37C242.882 100.37 266.008 148.511 286.863 103.096L319.056 262.949C319.056 262.949 269.174 278.394 268.729 285.66C268.285 292.927 218.41 267.045 218.41 267.045C218.41 267.045 229.289 247.06 226.575 234.801C223.86 222.541 242.882 100.37 242.882 100.37Z" fill="black"/>
<path d="M242.882 99.4592C242.882 99.4592 266.008 147.6 286.863 102.185L319.056 262.045C319.056 262.045 269.174 277.49 268.729 284.756C268.285 292.023 218.41 266.134 218.41 266.134C218.41 266.134 229.289 246.149 226.575 233.889C223.86 221.63 242.882 99.4592 242.882 99.4592Z" fill="#E1E7EF"/>
<path d="M265.56 427.816C265.56 427.816 259.666 414.646 273.266 414.646C286.866 414.646 284.603 426.453 284.603 426.453L265.56 427.816Z" fill="#5A5773"/>
<path d="M296.392 393.75C296.392 393.75 290.949 379.668 304.556 379.216C318.163 378.764 311.36 391.928 311.36 391.928L296.392 393.75Z" fill="#5A5773"/>
<path opacity="0.1" d="M284.828 89.2266C284.828 89.2266 298.654 96.2885 303.646 95.3563C308.638 94.4241 321.78 103.075 320.877 120.334L329.07 146.082C332.347 156.406 334.012 167.175 334.005 178.009C334.005 178.009 345.794 210.705 339.448 225.239L338.087 245.224C338.087 245.224 327.66 239.32 316.774 241.135L319.516 224.815L307.249 178.482L286.845 128.978L284.828 89.2266Z" fill="black"/>
<path d="M284.828 88.3296C284.828 88.3296 298.654 95.3915 303.646 94.4593C308.638 93.5271 321.78 102.178 320.877 119.437L329.07 145.185C332.347 155.509 334.012 166.278 334.005 177.112C334.005 177.112 345.794 209.808 339.448 224.342L338.087 244.327C338.087 244.327 327.66 238.423 316.774 240.238L319.495 223.89L307.249 177.571L286.866 128.067L284.828 88.3296Z" fill="#67647E"/>
<path opacity="0.1" d="M307.728 143.511V194.83L314.532 219.356C314.532 219.356 319.065 246.149 317.704 254.327C316.344 262.504 294.579 264.319 288.685 257.504C282.791 250.69 285.963 192.535 285.963 192.535L284.828 107.404L285.738 104.678L307.728 143.511Z" fill="black"/>
<path d="M308.658 141.245V192.563L315.461 217.089C315.461 217.089 319.995 243.882 318.634 252.06C317.273 260.238 295.509 262.052 289.614 255.238C283.72 248.423 286.893 190.268 286.893 190.268L285.758 105.116L308.658 141.245Z" fill="#67647E"/>
<path opacity="0.1" d="M217.27 183.934L231.779 229.13L224.976 248.43C224.976 248.43 257.168 282.49 277.572 266.141C277.572 266.141 279.842 196.652 275.302 180.304C270.761 163.956 249.004 108.979 249.004 108.979L244.498 94.4666L220.47 108.089L217.27 183.934Z" fill="black"/>
<path d="M216.133 181.66V226.15C216.133 226.15 217.043 235.69 213.863 242.046C210.683 248.402 223.839 246.135 223.839 246.135C223.839 246.135 256.032 280.194 276.436 263.846C276.436 263.846 278.706 194.357 274.166 178.009C269.625 161.66 247.867 106.684 247.867 106.684L243.334 92.1501L219.306 105.773L216.133 181.66Z" fill="#67647E"/>
<path opacity="0.1" d="M251.273 84.248C251.273 84.248 237.447 94.4666 221.577 92.1927C205.706 89.9187 196.639 160.319 196.639 160.319C196.639 160.319 190.745 196.652 209.788 193.474L251.957 179.393C251.957 179.393 242.89 169.852 244.251 157.593L223.84 165.764L224.756 126.711L251.273 84.248Z" fill="black"/>
<path opacity="0.1" d="M197.541 159.408C197.541 159.408 191.647 195.741 210.69 192.563L252.859 178.482C252.859 178.482 243.792 168.948 245.153 156.682L224.756 164.86L197.541 159.408Z" fill="black"/>
<path d="M244.152 161.47C244.152 161.47 258.303 142.833 268.723 151.781C279.144 160.728 247.889 177.126 247.889 177.126L244.152 161.47Z" fill="#FAC3CA"/>
<path d="M251.273 83.3369C251.273 83.3369 237.447 93.5555 221.577 91.2815C205.706 89.0076 196.639 159.408 196.639 159.408C196.639 159.408 190.745 195.741 209.788 192.563L251.957 178.482C251.957 178.482 242.89 168.941 244.251 156.682L223.84 164.859L224.756 125.8L247.882 106.733L251.273 83.3369Z" fill="#67647E"/>
<path opacity="0.1" d="M279.159 78.1113L253.312 71.7556C253.312 71.7556 254.658 73.281 253.086 79.2483C257.246 84.0292 262.357 90.3778 269.182 90.3778C274.066 90.387 278.821 88.8085 282.733 85.8794C281.273 83.4225 280.075 80.8189 279.159 78.1113Z" fill="black"/>
<path d="M268.729 89.4739C281.252 89.4739 291.403 79.3058 291.403 66.7628C291.403 54.2198 281.252 44.0518 268.729 44.0518C256.206 44.0518 246.055 54.2198 246.055 66.7628C246.055 79.3058 256.206 89.4739 268.729 89.4739Z" fill="#FAC3CA"/>
<path opacity="0.1" d="M277.325 56.9042C282.585 56.0073 288.367 53.6699 290.129 48.6277C291.257 45.4004 290.397 41.7282 288.557 38.854C286.717 35.9798 284.009 33.7694 281.217 31.7921C276.684 28.6001 271.685 25.8601 266.228 24.8997C265.287 24.6744 264.306 24.6744 263.366 24.8997C262.547 25.2352 261.769 25.6615 261.046 26.1708C257.316 28.3247 252.677 27.3926 248.355 27.1666C244.033 26.9406 238.851 28.1623 237.49 32.2511C237.067 33.5152 237.096 34.8782 236.785 36.1776C236.08 39.3554 233.69 41.8271 231.85 44.4753C230.01 47.1235 228.593 50.7039 230.144 53.5569C230.673 54.5244 231.554 55.4141 231.554 56.5158C231.418 57.2988 231.181 58.0608 230.849 58.7827C230.207 61.1272 232.076 63.493 234.233 64.6087C236.39 65.7245 238.872 66.0705 241.072 67.1086C243.131 68.1263 244.855 69.7148 246.038 71.6853C247.222 73.6558 247.816 75.9254 247.749 78.2241C249.751 78.4571 252.085 78.5772 253.438 77.08C254.045 76.4092 254.341 75.5123 254.891 74.7991C255.596 73.8669 256.696 73.3161 257.598 72.5675C262.343 68.6623 258.973 63.267 261.659 59.0581C263.069 56.8901 265.311 57.5539 267.582 57.5892C270.844 57.6657 274.106 57.4363 277.325 56.9042Z" fill="black"/>
<path d="M276.872 56.4523C282.132 55.5555 287.913 53.218 289.676 48.1758C290.804 44.9485 289.944 41.2763 288.104 38.4021C286.264 35.5279 283.556 33.3175 280.764 31.3402C276.231 28.1482 271.232 25.4082 265.775 24.4478C264.834 24.2225 263.853 24.2225 262.912 24.4478C262.094 24.7833 261.316 25.2096 260.593 25.7189C256.863 27.8728 252.224 26.9407 247.902 26.7147C243.58 26.4887 238.398 27.7104 237.037 31.7992C236.614 33.0633 236.642 34.4263 236.332 35.7257C235.627 38.9035 233.237 41.3752 231.397 44.0234C229.557 46.6716 228.14 50.252 229.691 53.105C230.219 54.0725 231.101 54.9622 231.101 56.0639C230.965 56.8469 230.728 57.6089 230.396 58.3308C229.754 60.6753 231.622 63.0411 233.78 64.1568C235.937 65.2726 238.419 65.6186 240.619 66.6567C242.686 67.6734 244.417 69.265 245.605 71.2413C246.793 73.2175 247.387 75.4947 247.317 77.8004C249.319 78.0335 251.653 78.1535 253.007 76.6564C253.613 75.9855 253.909 75.0887 254.459 74.3754C255.164 73.4432 256.264 72.8924 257.166 72.1438C261.911 68.2386 258.541 62.8433 261.227 58.6344C262.637 56.4664 264.88 57.1303 267.15 57.1656C270.406 57.2314 273.661 56.9926 276.872 56.4523Z" fill="#4A4347"/>
<path opacity="0.1" d="M304.32 132.841C304.32 132.841 309.305 158.73 307.042 168.722C305.659 174.535 305.864 180.614 307.634 186.321" fill="black"/>
<path opacity="0.1" d="M223.74 143.737C223.74 143.737 221.569 160.997 225.186 164.626L223.74 143.737Z" fill="black"/>
<path d="M350.347 356.434C350.627 356.434 350.896 356.323 351.094 356.124C351.293 355.926 351.404 355.656 351.404 355.375C351.404 355.094 351.293 354.825 351.094 354.626C350.896 354.428 350.627 354.316 350.347 354.316C350.066 354.316 349.797 354.428 349.599 354.626C349.4 354.825 349.289 355.094 349.289 355.375C349.289 355.656 349.4 355.926 349.599 356.124C349.797 356.323 350.066 356.434 350.347 356.434Z" fill="black"/>
<g opacity="0.5">
<path opacity="0.5" d="M675.986 233.028V232.442L483.621 84.2834C483.5 84.1934 483.353 84.1448 483.202 84.1448C483.051 84.1448 482.904 84.1934 482.782 84.2834L290.41 232.442V462.095H290.777V462.462H676.36V232.809L675.986 233.028Z" fill="url(#paint1_linear)"/>
</g>
<path d="M669.347 455.69H297.082V233.946L483.214 90.5896L669.347 233.946V455.69Z" fill="white"/>
<path d="M655.949 442.547H310.477V236.764L483.213 103.725L655.949 236.764V442.547Z" fill="#E0E0E0"/>
<path d="M541.816 100.65L331.078 155.986L401.343 424.447L612.082 369.11L541.816 100.65Z" fill="#2091F9"/>
<path d="M593.199 141.435H375.34V418.968H593.199V141.435Z" fill="#F5F5F5"/>
<path opacity="0.05" d="M298.844 234.299L484.976 345.171L298.844 456.043V234.299Z" fill="black"/>
<path d="M297.434 234.299L483.566 345.171L297.434 456.043V234.299Z" fill="white"/>
<path opacity="0.05" d="M668.289 234.299L482.156 345.171L668.289 456.043V234.299Z" fill="black"/>
<path d="M669.699 234.299L483.566 345.171L669.699 456.043V234.299Z" fill="white"/>
<path opacity="0.05" d="M297.434 452.512L483.566 307.037L669.698 452.512H297.434Z" fill="black"/>
<path d="M297.434 456.042L483.566 310.567L669.698 456.042H297.434Z" fill="white"/>
<path d="M335.258 472.885C335.258 472.885 325.909 441.107 337.014 417.704C341.732 407.921 343.154 396.869 341.068 386.208C340.038 381.155 338.549 376.207 336.619 371.427" stroke="#535461" stroke-width="2" stroke-miterlimit="10"/>
<path d="M343.523 356.639C343.523 360.537 336.472 371.829 336.472 371.829C336.472 371.829 329.422 360.53 329.422 356.639C329.422 354.766 330.165 352.97 331.487 351.646C332.809 350.321 334.602 349.577 336.472 349.577C338.342 349.577 340.136 350.321 341.458 351.646C342.78 352.97 343.523 354.766 343.523 356.639Z" fill="#6C63FF"/>
<path d="M355.192 378.221C353.077 381.49 341.035 387.14 341.035 387.14C341.035 387.14 341.254 373.821 343.369 370.551C344.423 369.073 346.006 368.058 347.789 367.718C349.571 367.379 351.416 367.74 352.939 368.728C354.462 369.716 355.546 371.254 355.965 373.022C356.385 374.79 356.108 376.652 355.192 378.221Z" fill="#6C63FF"/>
<path d="M354.654 415.091C351.178 416.842 337.938 415.634 337.938 415.634C337.938 415.634 344.84 404.251 348.309 402.499C349.139 402.034 350.055 401.742 351 401.64C351.946 401.539 352.903 401.63 353.813 401.909C354.722 402.188 355.567 402.648 356.294 403.262C357.022 403.876 357.617 404.631 358.046 405.481C358.474 406.332 358.727 407.261 358.787 408.212C358.848 409.163 358.716 410.116 358.399 411.015C358.082 411.913 357.587 412.738 356.943 413.44C356.3 414.141 355.521 414.705 354.654 415.098V415.091Z" fill="#6C63FF"/>
<path d="M347.999 442.907C344.868 445.224 331.613 446.269 331.613 446.269C331.613 446.269 336.492 433.882 339.623 431.566C341.129 430.56 342.964 430.172 344.748 430.484C346.531 430.796 348.127 431.783 349.204 433.241C350.281 434.699 350.756 436.516 350.532 438.316C350.307 440.115 349.4 441.759 347.999 442.907Z" fill="#6C63FF"/>
<path d="M326.222 387.888C329.042 390.6 342.008 393.418 342.008 393.418C342.008 393.418 338.828 380.487 336.036 377.776C334.678 376.573 332.91 375.941 331.099 376.01C329.288 376.079 327.573 376.844 326.31 378.146C325.047 379.448 324.333 381.188 324.317 383.003C324.3 384.818 324.983 386.57 326.222 387.895V387.888Z" fill="#6C63FF"/>
<path d="M318.846 420.521C322.322 422.273 335.563 421.065 335.563 421.065C335.563 421.065 328.661 409.681 325.192 407.93C323.535 407.18 321.654 407.1 319.94 407.707C318.226 408.313 316.813 409.559 315.994 411.185C315.175 412.81 315.015 414.689 315.546 416.43C316.078 418.171 317.26 419.639 318.846 420.528V420.521Z" fill="#6C63FF"/>
<path d="M316.024 453.218C319.155 455.534 332.41 456.579 332.41 456.579C332.41 456.579 327.531 444.193 324.4 441.876C323.661 441.271 322.807 440.823 321.89 440.558C320.972 440.293 320.011 440.217 319.064 440.336C318.116 440.454 317.203 440.764 316.379 441.247C315.554 441.73 314.837 442.375 314.269 443.144C313.701 443.912 313.295 444.789 313.076 445.719C312.856 446.65 312.828 447.615 312.992 448.557C313.156 449.499 313.509 450.398 314.031 451.199C314.552 452 315.23 452.687 316.024 453.218Z" fill="#6C63FF"/>
<path opacity="0.5" d="M475.457 154.147H388.031V161.209H475.457V154.147Z" fill="#6C63FF"/>
<path opacity="0.5" d="M576.984 182.394H388.031V189.456H576.984V182.394Z" fill="#6C63FF"/>
<path opacity="0.5" d="M576.984 200.755H388.031V207.817H576.984V200.755Z" fill="#6C63FF"/>
<path opacity="0.4" d="M576.984 219.116H388.031V226.178H576.984V219.116Z" fill="#6C63FF"/>
<path opacity="0.4" d="M576.984 237.477H388.031V244.539H576.984V237.477Z" fill="#6C63FF"/>
<path opacity="0.3" d="M495.903 255.838H388.031V262.9H495.903V255.838Z" fill="#6C63FF"/>
<path opacity="0.3" d="M535.386 274.199H388.031V281.261H535.386V274.199Z" fill="#6C63FF"/>
</g>
<defs>
<linearGradient id="paint0_linear" x1="192.946" y1="250.421" x2="343.84" y2="250.421" gradientUnits="userSpaceOnUse">
<stop stop-color="#808080" stop-opacity="0.25"/>
<stop offset="0.54" stop-color="#808080" stop-opacity="0.12"/>
<stop offset="1" stop-color="#808080" stop-opacity="0.1"/>
</linearGradient>
<linearGradient id="paint1_linear" x1="246075" y1="280247" x2="246075" y2="77563.5" gradientUnits="userSpaceOnUse">
<stop stop-color="#808080" stop-opacity="0.25"/>
<stop offset="0.54" stop-color="#808080" stop-opacity="0.12"/>
<stop offset="1" stop-color="#808080" stop-opacity="0.1"/>
</linearGradient>
<clipPath id="clip0">
<rect width="677" height="514" fill="white" transform="translate(119 0.303223)"/>
</clipPath>
</defs>
</svg>
